<?xml version="1.0" encoding="UTF-8"?>
<svg version="1.1" xmlns="http://www.w3.org/2000/svg" width="128" height="133">
<path d="M0 0 C3.57132034 2.79086582 6.81450257 5.7795611 10 9 C10.82564453 9.77537109 10.82564453 9.77537109 11.66796875 10.56640625 C15.4628151 14.46299111 17.80291651 19.13296777 20.25 23.9375 C20.5917627 24.60595947 20.93352539 25.27441895 21.28564453 25.96313477 C27.94623679 39.56806648 28.26055883 57.13362368 24.4375 71.6875 C18.12967146 89.7568005 6.62655115 104.0398022 -10.75 112.4375 C-14.26866924 113.89737341 -17.15517071 114.48060366 -21 114 C-22.77125945 112.22874055 -22.17195386 109.64236373 -22.2109375 107.2421875 C-22.23929687 106.05882813 -22.26765625 104.87546875 -22.296875 103.65625 C-22.34847118 101.15899477 -22.39288199 98.66157951 -22.4296875 96.1640625 C-22.59899206 89.64583691 -22.99686858 84.79748899 -26 79 C-26 78.01 -26 77.02 -26 76 C-25.01 75.84144531 -24.02 75.68289062 -23 75.51953125 C-12.08864255 73.83458198 -12.08864255 73.83458198 -3 68 C1.94801691 60.82537548 2.89521182 52.53435267 2 44 C0.58972319 39.91621266 -1.61501279 36.57748081 -4 33 C-3.94140625 30.765625 -3.94140625 30.765625 -3.5625 28.25 C-3.01034715 23.87129948 -3.15511572 20.31829743 -4 16 C-5.73151972 16.59738947 -7.46012147 17.20323967 -9.1875 17.8125 C-10.15042969 18.14894531 -11.11335938 18.48539063 -12.10546875 18.83203125 C-15.03406224 19.90688361 -15.03406224 19.90688361 -17.5546875 21.65625 C-20.45398844 23.24947608 -21.70974663 23.17986916 -24.9375 22.6875 C-33.53570184 21.63442279 -42.06459924 21.4934944 -50.625 22.875 C-56.50344092 23.54657263 -60.4654186 21.23773847 -65.46875 18.34765625 C-67.96340474 16.7650241 -67.96340474 16.7650241 -71 17 C-72.17073804 20.51221413 -71.95804426 23.11882278 -71.8125 26.8125 C-71.7513033 32.74857993 -72.07990723 35.60474447 -76 40 C-78.66926706 48.00780118 -77.64028518 57.45036509 -74 65 C-70.95953985 70.26233487 -66.59573995 72.17127173 -61 74 C-57.35273518 74.83191479 -53.70306286 75.47395743 -50 76 C-50 79.22794513 -50.63594515 80.68756496 -52 83.5625 C-53.5489394 86.65587142 -53.5489394 86.65587142 -54 90 C-54.99 90 -55.98 90 -57 90 C-57 89.34 -57 88.68 -57 88 C-57.66 88 -58.32 88 -59 88 C-59 88.99 -59 89.98 -59 91 C-59.99 91 -60.98 91 -62 91 C-62 90.01 -62 89.02 -62 88 C-62.66 88 -63.32 88 -64 88 C-64 88.66 -64 89.32 -64 90 C-65.32 90 -66.64 90 -68 90 C-67.505 88.02 -67.505 88.02 -67 86 C-67.66 86 -68.32 86 -69 86 C-69 86.66 -69 87.32 -69 88 C-69.99 87.67 -70.98 87.34 -72 87 C-72 86.01 -72 85.02 -72 84 C-72.99 84 -73.98 84 -75 84 C-74.67 82.68 -74.34 81.36 -74 80 C-74.598125 79.9175 -75.19625 79.835 -75.8125 79.75 C-78.61073143 78.79060637 -79.30410593 77.35950479 -81 75 C-82.485 74.505 -82.485 74.505 -84 74 C-83.22076172 74.94359375 -83.22076172 74.94359375 -82.42578125 75.90625 C-79.10814221 79.97817666 -75.94782816 83.91108683 -73.375 88.5 C-71.79560107 91.06846514 -71.11417289 91.93316709 -68.4375 93.5 C-63.28938334 94.24881697 -58.19151092 94.15120906 -53 94 C-52.97310551 96.95839355 -52.95321259 99.91654427 -52.9375 102.875 C-52.92912109 103.71675781 -52.92074219 104.55851562 -52.91210938 105.42578125 C-52.90888672 106.23144531 -52.90566406 107.03710938 -52.90234375 107.8671875 C-52.89710693 108.61081543 -52.89187012 109.35444336 -52.88647461 110.12060547 C-53 112 -53 112 -54 114 C-62.39793542 115.14517301 -69.24737181 110.61985346 -75.9375 105.94921875 C-89.57375974 95.28642121 -98.6039225 81.00582628 -102 64 C-102.40730445 60.05077335 -102.47788853 56.15551294 -102.4375 52.1875 C-102.42992676 51.13796143 -102.42235352 50.08842285 -102.41455078 49.00708008 C-102.05086699 31.80908404 -95.88467923 18.01643717 -83.85546875 5.73046875 C-61.17156799 -15.96042951 -25.69066594 -16.78632729 0 0 Z " fill="#000000" transform="translate(102,13)"/>
</svg>
